<svg xmlns="http://www.w3.org/2000/svg" width="960.622" height="92.5" viewBox="-173.182 518.067 960.622 92.5"><path d="M755.252 583.691c-2.5 2.5-6.563 7.5-8.438 10-5.623-1.875-9.063-6.25-9.063-11.25v-27.813c-2.813-1.563-7.188-5.313-9.373-6.875v32.813c.938 1.563 2.813 2.813 4.063 2.813.938 0 1.25-.313 2.813-1.563l.938.625c-2.813 2.813-7.5 8.438-9.998 11.25-3.438-3.125-6.877-5.938-10.313-8.125 1.561-.938 2.186-2.5 2.186-5v-27.813c-.625-1.25-2.186-2.5-2.811-2.5-.938 0-1.563.313-2.5 1.563l-.938-.938c3.75-3.438 8.125-7.813 10-10.313l6.873 6.563c1.875-1.25 5.625-4.688 7.5-6.563 3.125 2.5 9.686 7.188 15.311 10.313-1.563.938-2.188 1.875-2.188 4.063v25.938c0 2.188 1.875 4.063 3.438 4.063.938 0 1.563-.625 2.5-1.875v.624zm-42.496-.312c-3.438 3.438-7.5 7.813-9.375 10.313l-6.875-6.563c-1.877 1.25-5.627 4.688-7.502 6.563-3.125-2.5-9.688-7.188-15.313-10.313 1.563-.938 2.188-1.875 2.188-4.063v-25.938c0-2.188-1.875-4.063-3.438-4.063-.939 0-1.564.625-2.5 1.875l-.939-.625c2.5-2.5 6.564-7.5 8.439-10 5.625 1.875 9.063 6.25 9.063 11.25v27.813c2.813 1.563 7.188 5.313 9.377 6.875v-33.438c-.939-1.563-1.877-2.5-3.127-2.5-.938 0-1.563.625-2.5 1.563l-.938-.938c3.125-2.813 7.813-7.5 10.313-10l9.375 9.375c-1.875.625-2.5 1.875-2.5 5v26.563c.625 1.25 1.875 2.813 2.814 2.813.938 0 1.25-.313 2.5-1.25l.938-.312zm-85.002-55.938c-3.125 2.813-5.625 5.938-8.75 8.75-3.438-3.438-5-5.313-6.563-5.313-.939 0-1.564.313-2.5 1.25l-.939-.938 8.75-8.75c3.125 3.125 5.314 5.313 6.25 5.313.938 0 1.564-.313 2.5-.938l1.252.626zm5.938 55l-10 11.25c-3.125-2.813-7.5-6.563-10.314-8.125 1.25-.625 2.189-2.188 2.189-5.313v-27.188c-.939-1.875-1.875-2.813-2.814-2.813-.625 0-1.563.313-2.5 1.563l-.938-.938c3.125-2.813 7.813-7.188 10.625-10.313 1.875 2.188 6.25 6.563 9.375 9.375-1.563.625-2.5 1.875-2.5 3.75v27.188c1.563 1.875 2.813 2.813 4.063 2.813.625 0 1.564 0 2.814-1.563v.314zm-24.375-34.687c-1.873 1.875-4.373 5.313-6.563 10.938-1.875-3.75-4.688-8.438-6.563-10.313v32.813c.313 1.25 2.188 3.125 3.752 3.125 1.25 0 2.5-1.563 3.75-2.813l.938.938c-2.813 3.125-8.127 8.75-10.627 11.563-2.5-2.188-8.125-6.563-10.938-8.438 1.875-.938 2.5-2.813 2.5-5.625v-26.563c-.625-1.563-1.875-2.813-2.814-2.813-.938 0-1.563.313-2.5 1.563l-.938-.938c2.813-2.5 7.813-7.5 10.313-10.313l6.25 6.875 7.814-6.875c.628.938 3.128 4.063 5.626 6.876zm-80 15c-2.814 3.125-5.625 6.563-8.439 9.688-3.125-1.875-9.375-5.313-10.938-5.313-1.25 0-2.188.938-3.75 2.5l-.938-.938c1.563-1.563 7.5-8.438 8.438-9.688 4.063 2.188 9.688 5.313 11.25 5.313.938 0 2.188-.625 3.438-2.5l.939.938z"/><path d="M508.379 583.691c-2.5 2.5-6.563 7.5-8.438 10-5.625-1.875-9.063-6.25-9.063-11.25v-27.813c-2.813-1.563-7.188-5.313-9.375-6.875v32.813c.938 1.563 2.813 2.813 4.063 2.813.938 0 1.25-.313 2.813-1.563l.939.625c-2.814 2.813-7.5 8.438-10 11.25-3.438-3.125-6.875-5.938-10.313-8.125 1.563-.938 2.188-2.5 2.188-5v-27.5c-.625-1.25-2.188-2.813-3.125-2.813-.938 0-1.563.625-2.5 1.563l-.938-.938c3.438-3.125 8.125-7.813 10.313-10.313l6.875 6.563c1.875-1.25 5.625-4.688 7.5-6.563 3.125 2.5 9.688 7.188 15.311 10.313-1.561.938-2.186 1.875-2.186 4.063v25.938c0 2.188 1.873 4.063 3.436 4.063.939 0 1.564-.625 2.5-1.875v.624zm-83.437-56.25c-3.125 2.813-5.625 5.938-8.75 8.75-3.438-3.438-5-5.313-6.563-5.313-.938 0-1.563.313-2.5 1.25l-.938-.938 8.75-8.75c3.125 3.125 5.313 5.313 6.25 5.313.937 0 1.563-.313 2.5-.938l1.251.626zm4.375 55l-10 11.25c-3.125-2.813-7.5-6.25-10-8.125v-.313c1.25-.625 1.875-2.188 1.875-5.313v-27.188c-.938-1.875-1.875-2.813-2.813-2.813-.625 0-1.563.313-2.5 1.563l-.938-.938c3.125-2.813 7.5-7.188 10.313-10.313 1.875 2.188 6.25 6.563 9.063 9.375-1.563.625-2.5 2.188-2.5 3.75v27.188c1.563 1.875 2.813 2.813 4.063 2.813.625 0 1.563 0 2.813-1.563l.624.627zm-21.875 1.25c-2.5 2.5-6.563 7.5-8.438 10-5.625-1.875-9.063-6.25-9.063-11.25v-27.813c-2.813-1.563-7.188-5.313-9.375-6.875v32.813c.938 1.563 2.813 2.813 4.063 2.813.938 0 1.25-.313 2.813-1.563l.938.625c-2.813 2.813-7.5 8.438-10 11.25-3.125-2.813-6.875-5.938-10-8.125v-.313c1.25-.625 1.875-1.563 1.875-5V552.44c-.625-1.25-1.875-2.5-2.813-2.5s-1.563.313-2.5 1.563l-.938-.938c3.438-3.125 8.125-7.813 10-10.313l6.875 6.563c1.875-1.25 5.625-4.688 7.5-6.563 3.125 2.5 9.688 7.188 15.313 10.313-1.563.938-2.188 1.875-2.188 4.063v25.938c0 2.188 1.875 4.063 3.438 4.063.938 0 1.563-.625 2.5-1.875v.937zm379.998-30.312c-2.814 1.563-17.814 11.563-19.064 17.188v7.188c0 4.375 6.875 7.5 10.314 7.5 1.563 0 3.438-2.188 5.625-4.063l.938.938-11.563 11.563c-10.314-2.188-15.939-7.813-15.939-14.063v-20.313c0-1.875-.938-3.438-2.813-3.75 5-2.813 15-10 20.938-14.688 2.814 3.125 8.439 9.062 11.564 12.5zm-10.313 4.687c-2.813-2.813-6.875-7.813-8.75-10.313v18.438c2.188-3.125 5.938-6.25 8.75-8.125zm-107.81 21.25c-5.625 3.75-14.064 9.688-19.064 14.375-5-3.75-11.563-6.875-15.625-8.438 1.25-.625 2.189-1.875 2.189-5v-45.625c-.939-1.875-1.875-2.813-2.814-2.813-.625 0-1.563.313-2.5 1.563l-.938-.938c3.125-2.813 7.813-7.188 10.313-10.313 1.875 2.188 6.25 6.563 9.375 9.375-1.563.625-2.5 2.188-2.5 3.75v12.188c1.875-1.563 5-5 6.875-7.188 9.689 5 13.125 7.813 13.125 15.313v20.313c.001 1.876.626 2.813 1.564 3.438zm-12.5 6.563v-28.438c0-3.438-2.5-6.875-9.375-9.375v32.5c2.5 1.25 7.187 3.75 9.375 5.313zm-70.313-57.5c0 6.875-4.375 11.875-11.875 11.875-1.563 0-3.125-.313-4.375-.625v44.063c5.938-1.25 8.75-4.063 12.188-7.5l.938 1.25c-4.375 8.125-11.875 16.875-23.438 16.875-15.625 0-26.875-11.25-26.875-28.125 0-15.625 10.625-25 21.875-31.25l.938.938c-6.25 4.688-11.875 14.375-11.875 26.875 0 9.688 3.125 15 7.5 17.813 2.189-2.188 2.5-4.688 2.5-8.438v-18.438c0-6.875 5.939-11.563 11.875-15.625-7.5-2.813-15-7.5-23.438-7.5-7.813 0-11.563 2.5-11.563 6.875 0 3.125 2.188 5 4.375 5 1.563 0 2.813-.313 3.438-.938l-.625 2.5c-.625.313-1.563.313-2.188.313-4.063 0-6.875-2.813-6.875-8.125 0-9.375 6.563-15.938 17.5-15.938 14.063 0 23.125 10.625 32.5 10.625 3.75 0 5.625-1.25 5.625-3.75 0-2.188-1.563-3.75-3.75-4.375l2.188-1.563c1.562 1.563 3.437 4.063 3.437 7.188zm-17.812 55.937v-44.688c-.625 0-.939-.313-1.564-.313-3.125 2.813-3.75 5.313-3.75 10.625v18.438c0 6.25-3.438 8.75-11.25 13.438 3.75 1.875 8.125 2.813 13.125 2.813 1.251 0 2.501-.313 3.439-.313zM463.38 549.629c-1.25.313-1.875 1.875-1.875 3.75v25.625c0 1.563.313 2.813 1.563 3.438-5.313 1.563-13.125 5.938-19.375 11.25-8.438-4.375-13.125-8.438-13.125-15.938v-19.375c0-1.563-.625-2.813-2.188-3.438 6.25-3.438 15-10.313 19.375-14.375 3.125 1.875 10.937 6.875 15.625 9.063zm-12.5 37.187v-32.813c-2.5-1.25-7.813-4.375-9.375-6.25v28.438c-.313 5 5 8.75 9.375 10.625zm-84.063-3.75s-7.188 8.438-9.375 10.938c-3.75-1.25-7.813-3.75-9.375-8.125l-8.438 8.75c-11.25-3.125-19.688-8.125-19.688-18.75v-40.313c0-3.438-1.25-5.313-3.75-5.313-2.188 0-4.063.938-4.063 3.75 0 1.563.625 2.813 1.25 4.375h-1.563c-.625-.938-1.25-2.5-1.25-4.375 0-7.188 5-11.25 11.563-11.25 5.625 0 9.375 4.688 9.375 11.25v39.375c0 3.438.938 5.313 3.438 7.188v-50.313c0-1.875-.625-2.813-1.25-3.438.938-.938 1.875-2.188 2.5-3.438h.313v27.5c1.875.938 3.75 1.25 5.625 1.25s3.75-.313 5.625-1.25v-14.375c-.938-1.875-2.188-3.438-3.75-3.438-.938 0-1.25.313-2.188 1.25l-.938-.625 9.688-10.625 11.875 10.313c-1.875.625-3.125 2.188-3.125 4.688v40.938c0 3.438 2.5 5.625 4.375 5.625.313 0 .938-.313 1.563-.938l1.25-1.25.313.626zm-19.375-23.437v-7.5c-1.563.625-3.438.938-5.625.938s-3.75-.313-5.625-.938v7.5c1.563-.625 3.438-.938 5.625-.938 2.188-.312 4.063.313 5.625.938zm.313 25c-.313-1.25-.313-2.5-.313-3.438v-20.313c-1.563-.938-3.75-1.25-5.625-1.25s-3.438.313-5.625 1.25v20.625c.313.313.938.625 1.563.938 2.813 1.563 5.938 2.5 8.125 2.5.937 0 1.25-.312 1.875-.312zm-164.375-56.25c-2.813 2.5-5.625 5.625-8.438 8.75-3.438-3.438-5-5-6.25-5-.938 0-1.563.313-2.188.938l-.938-.938c2.813-2.5 6.875-6.875 8.438-8.438 2.813 3.125 5.313 5 6.25 5s1.563-.313 2.5-.938l.626.626zm5.937 53.75l-10 10.938c-3.125-2.813-7.5-6.25-10-8.125 1.25-.625 1.875-2.188 1.875-5.313v-26.563c-.625-1.875-1.875-2.5-2.813-2.5-.625 0-1.25.313-2.5 1.563l-.938-.938c3.125-2.813 7.5-6.875 10.313-10 1.875 2.188 5.938 6.563 9.063 9.063-1.563.625-2.5 1.563-2.5 3.75v26.563c1.563 1.875 2.5 2.813 3.75 2.813.625 0 1.563 0 2.813-1.563l.937.312zm-91.875 1.25c-2.188 2.5-6.25 7.188-8.125 9.688-5.625-1.875-8.75-5.938-8.75-10.938v-26.875c-2.813-1.563-7.188-5-9.063-6.875v32.188c.625 1.563 2.5 2.813 4.063 2.813.938 0 1.25-.313 2.5-1.563l.625.625c-2.813 2.813-7.5 8.125-10 10.938-3.438-3.125-6.875-5.625-10-8.125 1.563-.938 2.188-2.5 2.188-5V553.38c-.625-1.25-1.875-2.5-2.813-2.5s-1.25.313-2.188 1.25l-.625-.625c3.438-3.438 7.188-7.5 9.375-10l6.563 6.25c1.875-1.25 5.313-4.375 7.188-6.25 2.813 2.5 9.375 6.875 14.688 10.313-1.25.938-2.188 1.875-2.188 3.75v25.313c0 2.188 1.875 4.063 3.438 4.063.938 0 1.563-.625 2.5-1.875l.624.31zm-177.5 0c-2.188 2.5-6.25 7.188-8.125 9.688-5.625-1.875-8.75-5.938-8.75-10.938v-26.875c-2.813-1.563-7.188-5-9.063-6.875v31.875c.625 1.563 2.5 2.813 3.75 2.813s1.563-.313 2.813-1.563l.625.625c-2.813 2.813-7.5 8.125-10 10.938-2.5-2.5-6.563-5.625-10-8.125 1.563-.625 1.875-2.5 1.875-5v-41.25c0-8.438 8.125-14.063 13.438-17.188l.625.938c-2.188 1.875-3.75 5-3.75 11.25v13.75c1.563-1.25 5.313-4.688 7.188-6.25 2.813 2.5 9.375 6.875 14.688 10.313-1.25.938-2.188 1.875-2.188 3.75v25.313c0 2.188 1.875 4.063 3.438 4.063.938 0 1.563-.625 2.5-1.875l.936.623zm373.75-33.438c-1.25.313-1.875 1.563-1.875 3.438v25c0 1.563.313 2.813 1.563 3.438-5.313 1.563-12.813 5.625-19.063 10.938-8.438-4.063-12.813-8.438-12.813-15.625v-18.75c0-1.563-.625-2.813-1.875-3.438 5.938-3.125 14.688-10 18.75-14.063 2.813 2.187 10.938 6.875 15.313 9.062zm-12.187 36.25v-31.875c-2.5-1.25-7.5-4.375-9.063-5.938v27.813c-.312 4.688 5 8.125 9.063 10zm-25 6.563c0 2.5-2.188 5-9.375 10-4.375 3.125-12.188 6.25-14.063 7.813-2.188-3.438-2.5-5-5-5-3.75 0-10.938 1.563-12.188 2.813l-.625-.625c1.563-3.438 10.313-9.688 17.5-9.688 4.688 0 9.375 2.5 10.938 4.688 1.875-1.875 3.125-2.813 3.125-5.313 0-4.375-2.813-5.313-3.75-11.25-1.875 1.563-5.313 4.688-7.188 6.25-5.938-4.688-11.25-8.125-14.688-10.313 1.25-.625 2.188-1.875 2.188-4.063v-20c0-1.563-.625-2.813-1.875-3.438 5.938-3.125 14.688-10 18.75-14.063 2.813 2.188 10.625 6.875 15.313 9.063-1.25.313-1.875 1.563-1.875 3.438v29.375c0 4.688 2.813 5.313 2.813 10.313zm-13.438-7.188v-31.25c-2.5-1.25-7.5-4.375-9.063-5.938v30.625c1.563.626 5.313 3.751 9.063 6.563zm-23.125-31.875c-2.5 1.563-17.5 11.25-18.438 16.875v6.875c0 4.375 6.563 7.188 10 7.188 1.563 0 3.438-1.875 5.313-4.063l.938.938-11.563 11.25c-10-1.875-15.625-7.813-15.625-13.75v-20c0-1.875-.938-3.125-2.813-3.75 5-2.813 14.688-9.688 20.313-14.375 3.438 3.437 8.75 9.375 11.875 12.812zm-10 4.375c-2.813-2.813-6.563-7.813-8.438-10v18.125c1.876-3.125 5.626-6.25 8.438-8.125zm-46.25 19.688c-6.875 4.375-15.625 10.938-20.625 15.625-2.813-3.75-7.813-7.813-15-7.813-6.875 0-11.563 3.125-14.688 7.188l-.938-.938c6.563-8.438 9.063-10.938 9.063-16.563v-21.875c0-6.875 4.375-10.313 12.5-15.625l.938.938c-3.125 2.813-3.75 5.313-3.75 10.313v20.625c0 4.063-2.188 7.5-4.375 9.375 1.875-.938 5.313-1.875 8.75-1.875.938 0 1.563 0 2.5.313v-41.875c-4.063.625-8.125 1.25-13.125 1.25-5.938 0-10-3.75-10-9.375 0-6.25 3.75-9.063 10-9.375l.625 2.5c-2.5-.313-6.875 0-6.875 3.125 0 2.5 1.875 2.813 6.25 2.813 4.688 0 12.813-2.188 19.375-2.188 12.813 0 17.5 6.875 17.5 16.875v31.25c0 4.374.625 4.999 1.875 5.312zm-13.437-26.875v-5.313c0-7.188-1.25-10.313-6.563-10.313-1.563 0-2.813 0-4.063.313v15.313c1.875.938 3.75 1.25 5.313 1.25s3.75-.313 5.313-1.25zm0 8.75v-7.5c-1.563.625-3.438.938-5.313.938-2.188 0-3.75-.313-5.313-.938v7.5c1.563-.625 3.438-.938 5.313-.938s3.75.313 5.313.938zm0 23.75v-22.5c-1.563-.938-3.75-1.25-5.313-1.25-1.875 0-3.438.313-5.313 1.25v16.875c4.376.937 7.813 2.812 10.626 5.625zm-93.125-1.25c-9.063 10-10 10.938-10 10.938-2.5-2.5-5.938-5.313-7.813-6.563-2.5 2.5-3.438 3.75-6.25 6.563-7.813-.938-12.5-6.563-12.5-13.75 0-10 8.75-16.25 14.375-18.75-3.75-5.313-9.063-10-11.875-11.875l7.5-7.5c1.25 2.188 3.75 4.063 5.625 4.063 2.813 0 5.313-1.875 6.875-4.063 1.563 1.875 6.875 6.563 9.375 9.063-1.875 1.25-2.5 1.563-2.5 5v25.313c.625.625 1.875 2.813 3.75 2.813 1.25 0 1.875-.625 2.813-1.563l.625.311zm-17.813-18.75v-12.813l-1.875-2.188c-2.188 2.188-5.625 2.5-7.813 2.5 2.813 2.813 8.438 9.376 9.688 12.501zm0 20.937v-13.125c0-3.125-1.25-6.563-3.438-9.375-3.125 1.875-5.938 5.625-5.938 12.5 0 5.938 3.438 10.625 8.125 10.625.314 0 .939-.312 1.251-.625zm-19.062-22.812c0 12.188-13.75 23.75-22.813 32.5-2.5-2.813-8.438-7.5-14.688-7.5-7.5 0-10.938 2.813-14.063 6.875l-.625-.313c2.188-8.438 8.75-15.313 17.813-15.313s15 4.063 18.125 6.875c7.813-8.125 10-11.563 10-16.563 0-3.438-.625-7.5-8.125-11.25-2.188-1.25-5.313-2.188-9.063-3.125l-1.25 2.188c4.688 1.25 7.813 2.5 10.313 3.75 4.688 2.813 5.625 5.938 5.625 10.313 0 2.5-2.188 6.25-4.375 7.813-.313-5.938-2.188-8.75-16.563-11.875l-1.25-.313c-.938 1.25-1.563 2.5-2.188 3.75-2.813 4.375-6.563 4.375-6.563 4.375-2.188 0-3.75-1.563-3.75-3.125 0-2.188 1.563-3.438 3.438-3.438s3.438 2.188 4.375 2.188c.313 0 .625 0 .938-.625l2.188-3.438c-6.563-1.563-14.063-4.688-14.063-12.813 0-3.438 1.25-5.938 2.813-7.813.938 5 4.063 7.188 17.813 10.625l1.25-2.188-.938-.313c-8.438-2.188-17.188-4.375-17.188-14.375 0-9.688 8.438-15 19.375-15 7.813 0 12.5 2.5 15.938 4.688l1.563-2.188 1.25.938c-4.063 5.625-8.125 11.563-11.875 17.188 1.25.313 2.5.625 3.75 1.25 10.313 3.439 12.813 7.814 12.813 16.252zM6.817 535.879c-2.813-3.125-8.438-6.875-14.375-6.875-8.125 0-10.938 2.5-10.938 5.625 0 4.688 6.563 5.625 16.25 8.125 1.25.313 2.5.625 3.438.938 2.188-2.813 4.063-5.626 5.625-7.813zm-55.625 17.812c-2.5 1.563-17.5 11.25-18.438 16.875v6.875c0 4.375 6.563 7.188 10 7.188 1.563 0 3.438-1.875 5.313-4.063l.938.938-11.563 11.25c-10-1.875-15.625-7.813-15.625-13.75v-20c0-1.875-.938-3.125-2.813-3.75 5-2.813 14.688-9.688 20.313-14.375 3.125 3.437 8.75 9.375 11.875 12.812zm-10 4.375c-2.813-2.813-6.563-7.813-8.438-10v18.125c1.876-3.125 5.626-6.25 8.438-8.125zm-58.437-28.75c0 6.563-4.375 11.563-11.563 11.563-1.563 0-2.813-.313-4.375-.625v43.125c7.188-1.25 10.625-5.313 13.125-10l1.25.938c-4.063 9.375-10.938 19.063-24.375 19.063-15.313 0-26.25-10.938-26.25-27.5 0-15.313 10.313-24.375 21.25-30.313l.938.938c-5.938 4.688-11.563 14.063-11.563 26.25 0 9.375 2.813 14.688 7.188 17.813 2.188-2.188 2.813-4.688 2.813-8.438v-17.813c0-6.563 5.938-11.25 11.563-15-7.5-2.5-14.688-7.188-22.813-7.188-7.5 0-11.25 2.5-11.25 6.563 0 3.125 2.188 5 4.375 5 1.563 0 2.5-.313 3.438-.938l-.625 2.5c-.625.313-1.563.313-2.188.313-4.063 0-6.875-2.5-6.875-7.813 0-9.688 6.563-15.625 17.188-15.625 13.75 0 22.5 10.313 31.563 10.313 3.75 0 5.313-1.25 5.313-3.75 0-2.188-1.25-3.438-3.75-4.063l1.875-1.563c2.185.625 3.748 3.438 3.748 6.25zm-17.188 54.375v-43.75c-.625 0-.938-.313-1.563-.313-3.125 2.813-3.75 5.313-3.75 10.313v18.125c0 6.25-3.75 8.75-10.938 13.438 3.438 1.875 8.125 2.5 12.813 2.5 1.251 0 2.501-.313 3.438-.313z"/></svg>